<?xml version="1.0" encoding="UTF-8"?>
<svg version="1.1" xmlns="http://www.w3.org/2000/svg" width="225" height="225">
<path d="M0 0 C1.20687973 -0.00852997 2.41375946 -0.01705994 3.6572113 -0.02584839 C4.96800659 -0.02494202 6.27880188 -0.02403564 7.62931824 -0.02310181 C9.03430538 -0.0290912 10.43928923 -0.03589769 11.8442688 -0.04345703 C15.65019924 -0.06108313 19.45603968 -0.06581099 23.262007 -0.0670886 C25.64310208 -0.06851276 28.02417447 -0.07278738 30.4052639 -0.07808304 C38.72149985 -0.09657256 47.03767179 -0.10475506 55.35392761 -0.10317993 C63.09065743 -0.10197903 70.82710806 -0.12307385 78.56376725 -0.15466726 C85.21876417 -0.18086953 91.87367011 -0.19154557 98.52871817 -0.19026911 C102.49786085 -0.18976061 106.4667553 -0.19538152 110.43584633 -0.21662521 C114.17145992 -0.23607436 117.90659022 -0.23608708 121.64222145 -0.22159195 C123.65506472 -0.21852391 125.66790839 -0.23513371 127.68067932 -0.25247192 C135.8447148 -0.19611901 142.59530854 0.65999687 148.99333191 6.05648804 C153.07827687 11.75359228 155.5607249 17.53311225 154.52458191 24.65805054 C152.67293296 31.17762889 149.10614035 36.28677663 143.31336975 39.8346405 C139.04243573 41.61293063 135.59489131 41.70789549 131.02116394 41.69979858 C130.15222 41.70999023 129.28327606 41.72018188 128.38800049 41.73068237 C125.53111774 41.76074785 122.67457066 41.77006846 119.81755066 41.77914429 C117.8307128 41.79599575 115.84388558 41.81414662 113.85707092 41.83354187 C108.63915834 41.88099718 103.42128888 41.91083553 98.20323181 41.9369812 C92.874064 41.9668092 87.54504465 42.01333188 82.21598816 42.05844116 C71.76814922 42.14442349 61.32027969 42.21179141 50.87223816 42.26742554 C52.78158516 44.01832319 54.69102197 45.76912272 56.60050964 47.51986694 C57.13642479 48.01132706 57.67233994 48.50278717 58.22449493 49.00914001 C61.21836187 51.75396467 64.21645052 54.49401279 67.21989441 57.22836304 C68.45852115 58.36600783 69.69681565 59.50401448 70.93473816 60.64242554 C71.88896667 61.50674194 71.88896667 61.50674194 72.86247253 62.38851929 C78.6150583 67.69952907 81.43720477 72.06210282 82.24723816 79.89242554 C82.15541336 85.35089971 79.93068817 89.82847814 76.87223816 94.26742554 C71.06699887 99.83130915 65.54690899 100.42073797 57.83024597 100.44442749 C56.44194077 100.45428429 56.44194077 100.45428429 55.02558899 100.46434021 C51.95884623 100.4840706 48.89215244 100.49573542 45.82536316 100.50570679 C44.25390659 100.51182008 44.25390659 100.51182008 42.65070343 100.51805687 C37.10540972 100.53891676 31.56014075 100.5532187 26.01481628 100.56259155 C20.29045489 100.5736542 14.5664824 100.60805293 8.84225845 100.64776325 C4.43784365 100.67392269 0.0335216 100.68228282 -4.37096405 100.68587303 C-6.48084896 100.69074091 -8.59072967 100.70236057 -10.70053864 100.72091103 C-13.6567354 100.7452871 -16.6119248 100.74434003 -19.56819153 100.73739624 C-20.43598236 100.7502063 -21.30377319 100.76301636 -22.19786072 100.7762146 C-28.8449525 100.71944513 -33.00396993 99.0427214 -38.05354309 94.55648804 C-41.95191803 89.87843811 -43.80672639 86.10323869 -44.50276184 79.95492554 C-43.74502434 72.50384011 -40.83669601 67.2267523 -35.10432434 62.45883179 C-30.04227347 59.40759559 -24.88942094 58.94712063 -19.10432434 58.85336304 C-17.98506058 58.82431381 -17.98506058 58.82431381 -16.84318542 58.79467773 C-14.47982407 58.73530489 -12.11641287 58.68866774 -9.75276184 58.64242554 C-8.14206452 58.6042067 -6.53138678 58.56515273 -4.92073059 58.52523804 C-0.98990168 58.42963877 2.94102279 58.34545353 6.87223816 58.26742554 C5.29420646 56.67749771 3.71444004 55.08929151 2.13395691 53.50180054 C1.25441345 52.6171814 0.37487 51.73256226 -0.53132629 50.82113647 C-4.47850156 46.93891238 -8.57448127 43.1877053 -13.00276184 39.85726929 C-18.54940816 35.56579078 -22.20065236 30.10605407 -23.53791809 23.12680054 C-23.80714504 17.18039658 -22.3129554 11.7227534 -18.35823059 7.27914429 C-12.74482472 2.095062 -7.72124919 0.02477226 0 0 Z " fill="#2F60E8" transform="translate(67.12776184082031,35.732574462890625)"/>
<path d="M0 0 C1.31099167 -0.0076664 1.31099167 -0.0076664 2.64846802 -0.01548767 C5.5270276 -0.02934488 8.40534665 -0.02842953 11.28393555 -0.02612305 C13.29404285 -0.03001265 15.30414933 -0.03434786 17.31425476 -0.03910828 C21.52479721 -0.04656258 25.73525581 -0.04628532 29.94580078 -0.04101562 C35.3256895 -0.03522796 40.70523317 -0.05213895 46.08506489 -0.0753603 C50.23650602 -0.09013698 54.38786485 -0.09096388 58.53932762 -0.08785057 C60.52194081 -0.088362 62.50455883 -0.09356602 64.48714638 -0.10366249 C67.26769632 -0.11608333 70.0475846 -0.1092011 72.828125 -0.09765625 C74.04182518 -0.10912186 74.04182518 -0.10912186 75.28004456 -0.12081909 C81.78910267 -0.06147776 88.21875895 1.01234365 93.44799805 5.10668945 C98.02160679 10.7761751 100.71538243 15.49788603 100.4831543 23.05981445 C99.44814404 29.17284375 96.49608027 34.65462659 91.4831543 38.3371582 C86.2300626 41.35282196 81.97671747 41.43351523 76.06616211 41.45166016 C74.6778569 41.46151695 74.6778569 41.46151695 73.26150513 41.47157288 C70.19476237 41.49130326 67.12806858 41.50296809 64.0612793 41.51293945 C62.48982273 41.51905274 62.48982273 41.51905274 60.88661957 41.52528954 C55.34132586 41.54614942 49.79605688 41.56045137 44.25073242 41.56982422 C38.52637103 41.58088687 32.80239854 41.6152856 27.07817459 41.65499592 C22.67375979 41.68115536 18.26943774 41.68951549 13.86495209 41.6931057 C11.75506718 41.69797357 9.64518647 41.70959324 7.5353775 41.72814369 C4.57918074 41.75251976 1.62399134 41.7515727 -1.33227539 41.74462891 C-2.63396164 41.76384399 -2.63396164 41.76384399 -3.96194458 41.78344727 C-10.60903636 41.72667779 -14.76805379 40.04995406 -19.81762695 35.5637207 C-23.71600189 30.88567078 -25.57081025 27.11047136 -26.2668457 20.9621582 C-25.5091082 13.51107277 -22.60077988 8.23398497 -16.8684082 3.46606445 C-11.42661798 0.18593398 -6.15381666 -0.01870149 0 0 Z " fill="#2E5FE8" transform="translate(48.891845703125,94.725341796875)"/>
<path d="M0 0 C0.83818268 -0.00428513 1.67636536 -0.00857025 2.53994751 -0.01298523 C4.30657044 -0.01870708 6.07321692 -0.01924467 7.83984375 -0.01489258 C10.5238522 -0.01173663 13.20675286 -0.03520411 15.890625 -0.06054688 C17.61458196 -0.0628207 19.33854185 -0.06352298 21.0625 -0.0625 C21.85546478 -0.07170975 22.64842957 -0.08091949 23.46542358 -0.09040833 C29.75679838 -0.03890248 35.46050567 1.00699697 40.40625 5.203125 C40.94507812 5.87472656 41.48390625 6.54632813 42.0390625 7.23828125 C42.59335938 7.90730469 43.14765625 8.57632813 43.71875 9.265625 C47.65730956 14.81154265 47.90625837 19.60246356 47.1640625 26.30078125 C45.40343832 32.24288785 42.18341062 35.81796827 37.1640625 39.30078125 C32.41170658 41.83852263 27.73385711 41.60690656 22.48046875 41.6015625 C21.5473436 41.60584763 20.61421844 41.61013275 19.65281677 41.61454773 C17.68351043 41.62027895 15.71418293 41.62080021 13.74487305 41.61645508 C10.74035352 41.61329575 7.73681975 41.63676723 4.73242188 41.66210938 C2.8151054 41.66438263 0.8977863 41.66508574 -1.01953125 41.6640625 C-2.36041054 41.67787712 -2.36041054 41.67787712 -3.7283783 41.69197083 C-9.85263687 41.64678938 -14.17208339 40.68503235 -18.8828125 36.46875 C-23.20928258 31.43774007 -25.45177948 27.6941771 -26.2109375 20.98828125 C-25.4532 13.53719582 -22.54487167 8.26010802 -16.8125 3.4921875 C-11.40086544 0.23023386 -6.12427561 -0.00700328 0 0 Z " fill="#2F60E8" transform="translate(28.8359375,153.69921875)"/>
<path d="M0 0 C0.87418076 0.16469284 1.74836151 0.32938568 2.64903259 0.49906921 C5.73082314 0.95976118 8.50779566 1.08299639 11.61547852 1.01489258 C13.23360191 0.98671196 13.23360191 0.98671196 14.88441467 0.95796204 C16.614188 0.9265638 16.614188 0.9265638 18.37890625 0.89453125 C22.14070243 0.87053207 25.90245958 0.85704879 29.66430664 0.84350586 C32.25080282 0.82293311 34.83722166 0.78275408 37.4230957 0.72241211 C61.31245282 0.19886413 61.31245282 0.19886413 68.35362244 6.16838074 C70.79496953 8.63571108 72.8781037 11.25057939 75 14 C76.57026363 15.45415518 78.16777144 16.88063405 79.8125 18.25 C80.43769531 18.79140625 81.06289062 19.3328125 81.70703125 19.890625 C82.13371094 20.25671875 82.56039062 20.6228125 83 21 C79.71021486 22.09659505 79.17184379 21.83219138 76 21 C74.19424625 20.93997537 72.38627572 20.93580457 70.57983398 20.96923828 C69.49447861 20.98479767 68.40912323 21.00035706 67.2908783 21.01638794 C66.1210994 21.03418304 64.9513205 21.05197815 63.74609375 21.0703125 C61.25717309 21.08121834 58.76823676 21.0889282 56.27929688 21.09375 C52.36333583 21.10158927 48.45113712 21.12473035 44.53588867 21.20214844 C20.37409556 21.64859807 20.37409556 21.64859807 14.35255432 16.18466187 C12.34481304 13.93699146 10.67976662 11.49813143 9 9 C7.50172353 7.59797608 5.96629975 6.23298006 4.375 4.9375 C1.1033275 2.20665499 1.1033275 2.20665499 0 0 Z " fill="#86BFF4" transform="translate(55,75)"/>
<path d="M0 0 C0 3 0 3 -1.53125 4.60546875 C-2.1809375 5.12753906 -2.830625 5.64960937 -3.5 6.1875 C-4.1496875 6.71730469 -4.799375 7.24710937 -5.46875 7.79296875 C-5.9740625 8.19128906 -6.479375 8.58960937 -7 9 C-5.64978174 4.58110387 -3.73884332 2.65654657 0 0 Z " fill="#3768E9" transform="translate(33,98)"/>
<path d="M0 0 C0.99 0.33 1.98 0.66 3 1 C-0.465 3.97 -0.465 3.97 -4 7 C-2.92598892 4.08482708 -2.22189824 2.22189824 0 0 Z " fill="#3869E9" transform="translate(10,159)"/>
</svg>
